<svg id="_4-social-media-icon-instagram" data-name="4-social-media-icon-instagram" xmlns="http://www.w3.org/2000/svg" width="22.46" height="22.46" viewBox="0 0 22.46 22.46">
  <path id="Path_2301" data-name="Path 2301" d="M142.347,35.8a1.347,1.347,0,1,0,1.347,1.347,1.347,1.347,0,0,0-1.347-1.347Z" transform="translate(-125.187 -31.802)" fill="#fff"/>
  <path id="Path_2302" data-name="Path 2302" d="M57.58,50.8a5.68,5.68,0,1,0,5.68,5.68,5.68,5.68,0,0,0-5.68-5.68Zm0,9.315a3.636,3.636,0,1,1,3.636-3.636,3.636,3.636,0,0,1-3.636,3.636Z" transform="translate(-46.256 -45.244)" fill="#fff"/>
  <path id="Path_2303" data-name="Path 2303" d="M16.323,22.76H7.348A6.759,6.759,0,0,1,.6,16.012V7.048A6.759,6.759,0,0,1,7.348.3h8.964A6.759,6.759,0,0,1,23.06,7.048v8.964a6.749,6.749,0,0,1-6.736,6.748ZM7.348,2.414A4.641,4.641,0,0,0,2.714,7.048v8.964a4.641,4.641,0,0,0,4.635,4.635h8.964a4.641,4.641,0,0,0,4.635-4.635V7.048a4.641,4.641,0,0,0-4.635-4.635Z" transform="translate(-0.6 -0.3)" fill="#fff"/>
</svg>
