<svg xmlns="http://www.w3.org/2000/svg" width="24.827" height="17.374" viewBox="0 0 24.827 17.374">
  <path id="_5-social-media-icon-youtube" data-name="5-social-media-icon-youtube" d="M24.915,34.447A5.442,5.442,0,0,0,19.468,29H5.547A5.45,5.45,0,0,0,.1,34.447v6.48a5.442,5.442,0,0,0,5.447,5.447H19.48a5.442,5.442,0,0,0,5.447-5.447v-6.48Zm-8.19,3.726L10.479,41.26c-.246.135-1.082-.049-1.082-.32V34.607c0-.283.836-.455,1.082-.32l5.976,3.259c.258.136.529.492.27.627Z" transform="translate(-0.1 -29)" fill="#fff"/>
</svg>
