<?xml version="1.0" encoding="UTF-8" standalone="no"?>
<svg
   xmlns:dc="http://purl.org/dc/elements/1.1/"
   xmlns:cc="http://creativecommons.org/ns#"
   xmlns:rdf="http://www.w3.org/1999/02/22-rdf-syntax-ns#"
   xmlns:svg="http://www.w3.org/2000/svg"
   xmlns="http://www.w3.org/2000/svg"
   viewBox="0 0 126.72 126.72"
   height="126.72"
   width="126.72"
   xml:space="preserve"
   id="svg2"
   version="1.1"><metadata
     id="metadata8"><rdf:RDF><cc:Work
         rdf:about=""><dc:format>image/svg+xml</dc:format><dc:type
           rdf:resource="http://purl.org/dc/dcmitype/StillImage" /></cc:Work></rdf:RDF></metadata><defs
     id="defs6" /><g
     transform="matrix(1.3333333,0,0,-1.3333333,0,126.72)"
     id="g10"><g
       transform="scale(0.1)"
       id="g12"><path
         id="path14"
         style="fill:#fdd700;fill-opacity:1;fill-rule:nonzero;stroke:none"
         d="m 475.664,96.1523 c 207.297,0 375.344,168.0467 375.344,375.3477 0,207.297 -168.047,375.344 -375.344,375.344 C 268.367,846.844 100.32,678.797 100.32,471.5 100.32,264.199 268.367,96.1523 475.664,96.1523" /><path
         id="path16"
         style="fill:none;stroke:#ffffff;stroke-width:20;stroke-linecap:round;stroke-linejoin:round;stroke-miterlimit:4;stroke-dasharray:0, 59.063;stroke-dashoffset:0;stroke-opacity:1"
         d="m 534.434,138.227 c 149.394,26.16 265.07,150.324 278.324,303.777" /><path
         id="path18"
         style="fill:none;stroke:#ffffff;stroke-width:20;stroke-linecap:round;stroke-linejoin:round;stroke-miterlimit:4;stroke-dasharray:0, 59.063;stroke-dashoffset:0;stroke-opacity:1"
         d="M 808.938,530.27 C 782.773,679.66 658.613,795.34 505.16,808.59" /><path
         id="path20"
         style="fill:none;stroke:#ffffff;stroke-width:20;stroke-linecap:round;stroke-linejoin:round;stroke-miterlimit:4;stroke-dasharray:0, 59.063;stroke-dashoffset:0;stroke-opacity:1"
         d="M 416.895,804.77 C 267.504,778.609 151.824,654.449 138.574,500.992" /><path
         id="path22"
         style="fill:none;stroke:#ffffff;stroke-width:20;stroke-linecap:round;stroke-linejoin:round;stroke-miterlimit:4;stroke-dasharray:0, 59.063;stroke-dashoffset:0;stroke-opacity:1"
         d="M 142.391,412.73 C 168.555,263.336 292.715,147.66 446.168,134.406" /><path
         id="path24"
         style="fill:none;stroke:#ffffff;stroke-width:20;stroke-linecap:round;stroke-linejoin:round;stroke-miterlimit:4;stroke-dasharray:none;stroke-opacity:1"
         d="m 814.023,471.5 v 0 M 475.664,809.859 v 0 M 137.305,471.5 v 0 M 475.664,133.141 v 0" /><path
         id="path26"
         style="fill:#454f7f;fill-opacity:1;fill-rule:nonzero;stroke:none"
         d="m 244.348,543.379 52,24.441 V 374.898 h -52 v -69.16 h 208 v 69.16 h -48.36 v 294.321 h -92.562 c -37.957,-45.239 -61.36,-53.559 -91,-68.121 z m 201.078,-60.84 V 408.18 h 149.758 v -33.801 h -32.758 v -68.641 h 168.476 v 68.641 h -28.078 v 33.801 h 27.559 v 56.16 H 702.824 V 669.219 H 595.184 Z M 595.184,464.34 h -76.961 l 76.961,96.199 z" /></g></g></svg>