<?xml version="1.0" encoding="UTF-8" standalone="no"?>
<svg
   xmlns:dc="http://purl.org/dc/elements/1.1/"
   xmlns:cc="http://creativecommons.org/ns#"
   xmlns:rdf="http://www.w3.org/1999/02/22-rdf-syntax-ns#"
   xmlns:svg="http://www.w3.org/2000/svg"
   xmlns="http://www.w3.org/2000/svg"
   viewBox="0 0 126.72 126.72"
   height="126.72"
   width="126.72"
   xml:space="preserve"
   id="svg2"
   version="1.1"><metadata
     id="metadata8"><rdf:RDF><cc:Work
         rdf:about=""><dc:format>image/svg+xml</dc:format><dc:type
           rdf:resource="http://purl.org/dc/dcmitype/StillImage" /></cc:Work></rdf:RDF></metadata><defs
     id="defs6" /><g
     transform="matrix(1.3333333,0,0,-1.3333333,0,126.72)"
     id="g10"><g
       transform="scale(0.1)"
       id="g12"><path
         id="path14"
         style="fill:#fdd700;fill-opacity:1;fill-rule:nonzero;stroke:none"
         d="m 475.664,101.895 c 207.297,0 375.344,168.046 375.344,375.343 0,207.297 -168.047,375.344 -375.344,375.344 -207.297,0 -375.344,-168.047 -375.344,-375.344 0,-207.297 168.047,-375.343 375.344,-375.343" /><path
         id="path16"
         style="fill:none;stroke:#ffffff;stroke-width:20;stroke-linecap:round;stroke-linejoin:round;stroke-miterlimit:4;stroke-dasharray:0, 59.063;stroke-dashoffset:0;stroke-opacity:1"
         d="m 534.434,143.965 c 149.394,26.164 265.07,150.324 278.324,303.777" /><path
         id="path18"
         style="fill:none;stroke:#ffffff;stroke-width:20;stroke-linecap:round;stroke-linejoin:round;stroke-miterlimit:4;stroke-dasharray:0, 59.063;stroke-dashoffset:0;stroke-opacity:1"
         d="M 808.938,536.008 C 782.773,685.398 658.613,801.074 505.16,814.328" /><path
         id="path20"
         style="fill:none;stroke:#ffffff;stroke-width:20;stroke-linecap:round;stroke-linejoin:round;stroke-miterlimit:4;stroke-dasharray:0, 59.063;stroke-dashoffset:0;stroke-opacity:1"
         d="M 416.895,810.512 C 267.504,784.348 151.824,660.188 138.574,506.734" /><path
         id="path22"
         style="fill:none;stroke:#ffffff;stroke-width:20;stroke-linecap:round;stroke-linejoin:round;stroke-miterlimit:4;stroke-dasharray:0, 59.063;stroke-dashoffset:0;stroke-opacity:1"
         d="M 142.391,418.469 C 168.555,269.074 292.715,153.398 446.168,140.145" /><path
         id="path24"
         style="fill:none;stroke:#ffffff;stroke-width:20;stroke-linecap:round;stroke-linejoin:round;stroke-miterlimit:4;stroke-dasharray:none;stroke-opacity:1"
         d="m 814.023,477.238 v 0 m -338.359,338.36 v 0 M 137.305,477.238 v 0 M 475.664,138.879 v 0" /><path
         id="path26"
         style="fill:#454f7f;fill-opacity:1;fill-rule:nonzero;stroke:none"
         d="m 338.129,418.078 c 0,-63.961 51.48,-113.359 137.801,-113.359 83.718,0 137.277,49.398 137.277,113.359 0,35.36 -18.199,72.801 -53.559,89.961 22.879,10.922 43.68,36.399 43.68,70.719 0,57.722 -43.68,102.441 -124.281,102.441 -78,0 -123.758,-44.719 -123.758,-102.441 0,-24.957 13,-53.559 39,-69.16 -34.32,-17.16 -56.16,-57.719 -56.16,-91.52 z m 178.879,164.84 c 0,-15.598 -11.961,-28.078 -24.961,-34.32 -17.16,0.519 -51.481,5.722 -51.481,34.32 0,17.16 17.161,32.762 37.442,32.762 20.801,0 39,-14.039 39,-32.762 z M 428.09,421.199 c 0,19.239 14.558,37.442 30.156,46.281 23.922,-1.042 66.043,-9.882 66.043,-46.281 -0.519,-28.601 -22.359,-42.64 -47.84,-42.64 -26,0 -48.359,18.199 -48.359,42.64" /></g></g></svg>