<?xml version="1.0" encoding="UTF-8" standalone="no"?>
<svg
   xmlns:dc="http://purl.org/dc/elements/1.1/"
   xmlns:cc="http://creativecommons.org/ns#"
   xmlns:rdf="http://www.w3.org/1999/02/22-rdf-syntax-ns#"
   xmlns:svg="http://www.w3.org/2000/svg"
   xmlns="http://www.w3.org/2000/svg"
   viewBox="0 0 126.72 126.72"
   height="126.72"
   width="126.72"
   xml:space="preserve"
   id="svg2"
   version="1.1"><metadata
     id="metadata8"><rdf:RDF><cc:Work
         rdf:about=""><dc:format>image/svg+xml</dc:format><dc:type
           rdf:resource="http://purl.org/dc/dcmitype/StillImage" /></cc:Work></rdf:RDF></metadata><defs
     id="defs6" /><g
     transform="matrix(1.3333333,0,0,-1.3333333,0,126.72)"
     id="g10"><g
       transform="scale(0.1)"
       id="g12"><path
         id="path14"
         style="fill:#fdd700;fill-opacity:1;fill-rule:nonzero;stroke:none"
         d="m 475.664,82.7305 c 207.297,0 375.344,168.0465 375.344,375.3435 0,207.301 -168.047,375.348 -375.344,375.348 -207.297,0 -375.344,-168.047 -375.344,-375.348 0,-207.297 168.047,-375.3435 375.344,-375.3435" /><path
         id="path16"
         style="fill:none;stroke:#ffffff;stroke-width:20;stroke-linecap:round;stroke-linejoin:round;stroke-miterlimit:4;stroke-dasharray:0, 59.063;stroke-dashoffset:0;stroke-opacity:1"
         d="m 534.434,124.801 c 149.394,26.164 265.07,150.328 278.324,303.777" /><path
         id="path18"
         style="fill:none;stroke:#ffffff;stroke-width:20;stroke-linecap:round;stroke-linejoin:round;stroke-miterlimit:4;stroke-dasharray:0, 59.063;stroke-dashoffset:0;stroke-opacity:1"
         d="M 808.938,516.844 C 782.773,666.238 658.613,781.914 505.16,795.168" /><path
         id="path20"
         style="fill:none;stroke:#ffffff;stroke-width:20;stroke-linecap:round;stroke-linejoin:round;stroke-miterlimit:4;stroke-dasharray:0, 59.063;stroke-dashoffset:0;stroke-opacity:1"
         d="M 416.895,791.348 C 267.504,765.184 151.824,641.023 138.574,487.57" /><path
         id="path22"
         style="fill:none;stroke:#ffffff;stroke-width:20;stroke-linecap:round;stroke-linejoin:round;stroke-miterlimit:4;stroke-dasharray:0, 59.063;stroke-dashoffset:0;stroke-opacity:1"
         d="M 142.391,399.305 C 168.555,249.91 292.715,134.234 446.168,120.984" /><path
         id="path24"
         style="fill:none;stroke:#ffffff;stroke-width:20;stroke-linecap:round;stroke-linejoin:round;stroke-miterlimit:4;stroke-dasharray:none;stroke-opacity:1"
         d="m 814.023,458.074 v 0 m -338.359,338.36 v 0 M 137.305,458.074 v 0 M 475.664,119.715 v 0" /><path
         id="path26"
         style="fill:#454f7f;fill-opacity:1;fill-rule:nonzero;stroke:none"
         d="m 250.25,529.957 52,24.438 V 361.477 h -52 v -69.161 h 208 v 69.161 h -48.359 v 294.32 h -92.563 c -37.957,-45.242 -61.359,-53.563 -91,-68.121 z m 276.633,21.32 c 18.199,19.239 41.082,31.2 60.84,31.2 21.84,0 45.761,-13 45.761,-41.082 0,-23.399 -19.242,-35.879 -44.203,-35.879 h -37.957 v -61.879 h 39 c 26,0 43.16,-9.879 43.16,-37.961 0,-26 -17.679,-40.039 -46.8,-40.039 -29.641,0 -49.403,14.558 -68.641,33.801 l -53.039,-55.122 c 20.277,-30.16 71.758,-58.761 121.16,-58.761 70.199,0 144.039,37.441 144.039,114.402 0,46.801 -31.719,73.32 -48.359,85.277 13.519,10.403 38.48,30.684 38.48,66.043 0,66.559 -47.84,110.239 -132.601,110.239 -47.321,0 -92.559,-29.121 -111.282,-49.399 l 50.442,-60.84" /></g></g></svg>