<?xml version="1.0" encoding="UTF-8" standalone="no"?>
<svg
   xmlns:dc="http://purl.org/dc/elements/1.1/"
   xmlns:cc="http://creativecommons.org/ns#"
   xmlns:rdf="http://www.w3.org/1999/02/22-rdf-syntax-ns#"
   xmlns:svg="http://www.w3.org/2000/svg"
   xmlns="http://www.w3.org/2000/svg"
   viewBox="0 0 126.72 126.72"
   height="126.72"
   width="126.72"
   xml:space="preserve"
   id="svg2"
   version="1.1"><metadata
     id="metadata8"><rdf:RDF><cc:Work
         rdf:about=""><dc:format>image/svg+xml</dc:format><dc:type
           rdf:resource="http://purl.org/dc/dcmitype/StillImage" /></cc:Work></rdf:RDF></metadata><defs
     id="defs6" /><g
     transform="matrix(1.3333333,0,0,-1.3333333,0,126.72)"
     id="g10"><g
       transform="scale(0.1)"
       id="g12"><path
         id="path14"
         style="fill:#fdd700;fill-opacity:1;fill-rule:nonzero;stroke:none"
         d="m 475.664,102.988 c 207.297,0 375.344,168.047 375.344,375.348 0,207.297 -168.047,375.344 -375.344,375.344 -207.297,0 -375.344,-168.047 -375.344,-375.344 0,-207.301 168.047,-375.348 375.344,-375.348" /><path
         id="path16"
         style="fill:none;stroke:#ffffff;stroke-width:20;stroke-linecap:round;stroke-linejoin:round;stroke-miterlimit:4;stroke-dasharray:0, 59.063;stroke-dashoffset:0;stroke-opacity:1"
         d="m 534.434,145.063 c 149.394,26.16 265.07,150.324 278.324,303.777" /><path
         id="path18"
         style="fill:none;stroke:#ffffff;stroke-width:20;stroke-linecap:round;stroke-linejoin:round;stroke-miterlimit:4;stroke-dasharray:0, 59.063;stroke-dashoffset:0;stroke-opacity:1"
         d="M 808.938,537.105 C 782.773,686.496 658.613,802.176 505.16,815.426" /><path
         id="path20"
         style="fill:none;stroke:#ffffff;stroke-width:20;stroke-linecap:round;stroke-linejoin:round;stroke-miterlimit:4;stroke-dasharray:0, 59.063;stroke-dashoffset:0;stroke-opacity:1"
         d="M 416.895,811.605 C 267.504,785.445 151.824,661.285 138.574,507.828" /><path
         id="path22"
         style="fill:none;stroke:#ffffff;stroke-width:20;stroke-linecap:round;stroke-linejoin:round;stroke-miterlimit:4;stroke-dasharray:0, 59.063;stroke-dashoffset:0;stroke-opacity:1"
         d="M 142.391,419.566 C 168.555,270.172 292.715,154.496 446.168,141.242" /><path
         id="path24"
         style="fill:none;stroke:#ffffff;stroke-width:20;stroke-linecap:round;stroke-linejoin:round;stroke-miterlimit:4;stroke-dasharray:none;stroke-opacity:1"
         d="m 814.023,478.336 v 0 M 475.664,816.695 v 0 M 137.305,478.336 v 0 M 475.664,139.977 v 0" /><path
         id="path26"
         style="fill:#454f7f;fill-opacity:1;fill-rule:nonzero;stroke:none"
         d="m 341.246,348.977 c 30.684,-26 87.883,-42.122 122.723,-41.082 136.758,4.16 158.078,132.082 156,211.121 -3.121,104 -69.16,165.359 -154.442,162.761 -84.757,-2.601 -134.679,-61.882 -134.679,-131.562 0,-70.719 55.121,-118.559 121.679,-115.957 27.563,1.039 49.922,13 63.442,26.519 0.519,-45.761 -24.961,-69.679 -63.442,-70.722 -31.718,0 -58.238,16.121 -75.918,26.519 z m 124.801,160.16 c -31.199,-0.52 -41.598,26 -42.117,46.281 -0.524,24.957 20.797,44.719 47.316,44.719 33.281,0 43.684,-35.36 43.684,-61.36 -8.321,-10.402 -24.442,-28.601 -48.883,-29.64" /></g></g></svg>