<?xml version="1.0" encoding="UTF-8" standalone="no"?>
<svg
   xmlns:dc="http://purl.org/dc/elements/1.1/"
   xmlns:cc="http://creativecommons.org/ns#"
   xmlns:rdf="http://www.w3.org/1999/02/22-rdf-syntax-ns#"
   xmlns:svg="http://www.w3.org/2000/svg"
   xmlns="http://www.w3.org/2000/svg"
   viewBox="0 0 126.72 126.72"
   height="126.72"
   width="126.72"
   xml:space="preserve"
   id="svg2"
   version="1.1"><metadata
     id="metadata8"><rdf:RDF><cc:Work
         rdf:about=""><dc:format>image/svg+xml</dc:format><dc:type
           rdf:resource="http://purl.org/dc/dcmitype/StillImage" /></cc:Work></rdf:RDF></metadata><defs
     id="defs6" /><g
     transform="matrix(1.3333333,0,0,-1.3333333,0,126.72)"
     id="g10"><g
       transform="scale(0.1)"
       id="g12"><path
         id="path14"
         style="fill:#fdd700;fill-opacity:1;fill-rule:nonzero;stroke:none"
         d="m 475.664,80.1367 c 207.297,0 375.344,168.0473 375.344,375.3433 0,207.297 -168.047,375.344 -375.344,375.344 -207.297,0 -375.344,-168.047 -375.344,-375.344 0,-207.296 168.047,-375.3433 375.344,-375.3433" /><path
         id="path16"
         style="fill:none;stroke:#ffffff;stroke-width:20;stroke-linecap:round;stroke-linejoin:round;stroke-miterlimit:4;stroke-dasharray:0, 59.063;stroke-dashoffset:0;stroke-opacity:1"
         d="m 534.434,122.207 c 149.394,26.16 265.07,150.324 278.324,303.777" /><path
         id="path18"
         style="fill:none;stroke:#ffffff;stroke-width:20;stroke-linecap:round;stroke-linejoin:round;stroke-miterlimit:4;stroke-dasharray:0, 59.063;stroke-dashoffset:0;stroke-opacity:1"
         d="M 808.938,514.25 C 782.773,663.641 658.613,779.316 505.16,792.57" /><path
         id="path20"
         style="fill:none;stroke:#ffffff;stroke-width:20;stroke-linecap:round;stroke-linejoin:round;stroke-miterlimit:4;stroke-dasharray:0, 59.063;stroke-dashoffset:0;stroke-opacity:1"
         d="M 416.895,788.754 C 267.504,762.59 151.824,638.43 138.574,484.977" /><path
         id="path22"
         style="fill:none;stroke:#ffffff;stroke-width:20;stroke-linecap:round;stroke-linejoin:round;stroke-miterlimit:4;stroke-dasharray:0, 59.063;stroke-dashoffset:0;stroke-opacity:1"
         d="M 142.391,396.711 C 168.555,247.316 292.715,131.641 446.168,118.387" /><path
         id="path24"
         style="fill:none;stroke:#ffffff;stroke-width:20;stroke-linecap:round;stroke-linejoin:round;stroke-miterlimit:4;stroke-dasharray:none;stroke-opacity:1"
         d="m 814.023,455.48 v 0 M 475.664,793.84 v 0 M 137.305,455.48 v 0 M 475.664,117.121 v 0" /><path
         id="path26"
         style="fill:#454f7f;fill-opacity:1;fill-rule:nonzero;stroke:none"
         d="m 240.031,527.359 52,24.442 V 358.883 h -52 v -69.16 h 208 v 69.16 h -48.359 v 294.316 h -92.563 c -37.957,-45.238 -61.359,-53.558 -91,-68.117 z M 593.781,283.48 c 94.117,0 146.641,70.719 146.641,186.161 0,114.922 -47.32,190.32 -149.242,190.32 -86.321,0 -146.641,-76.441 -146.641,-186.68 0,-127.922 62.402,-189.801 149.242,-189.801 z m 0,80.602 c -20.801,0 -46.281,42.117 -46.281,109.199 0,63.442 23.922,103.481 43.16,102.961 25.481,0 45.238,-44.722 45.238,-106.601 0,-63.442 -18.199,-105.559 -42.117,-105.559" /></g></g></svg>