<?xml version="1.0" encoding="UTF-8" standalone="no"?>
<svg
   xmlns:dc="http://purl.org/dc/elements/1.1/"
   xmlns:cc="http://creativecommons.org/ns#"
   xmlns:rdf="http://www.w3.org/1999/02/22-rdf-syntax-ns#"
   xmlns:svg="http://www.w3.org/2000/svg"
   xmlns="http://www.w3.org/2000/svg"
   viewBox="0 0 126.72 126.72"
   height="126.72"
   width="126.72"
   xml:space="preserve"
   id="svg2"
   version="1.1"><metadata
     id="metadata8"><rdf:RDF><cc:Work
         rdf:about=""><dc:format>image/svg+xml</dc:format><dc:type
           rdf:resource="http://purl.org/dc/dcmitype/StillImage" /></cc:Work></rdf:RDF></metadata><defs
     id="defs6" /><g
     transform="matrix(1.3333333,0,0,-1.3333333,0,126.72)"
     id="g10"><g
       transform="scale(0.1)"
       id="g12"><path
         id="path14"
         style="fill:#fdd700;fill-opacity:1;fill-rule:nonzero;stroke:none"
         d="m 475.664,114.91 c 207.297,0 375.344,168.051 375.344,375.348 0,207.297 -168.047,375.344 -375.344,375.344 -207.297,0 -375.344,-168.047 -375.344,-375.344 0,-207.297 168.047,-375.348 375.344,-375.348" /><path
         id="path16"
         style="fill:none;stroke:#ffffff;stroke-width:20;stroke-linecap:round;stroke-linejoin:round;stroke-miterlimit:4;stroke-dasharray:0, 59.063;stroke-dashoffset:0;stroke-opacity:1"
         d="m 534.434,156.984 c 149.394,26.161 265.07,150.325 278.324,303.778" /><path
         id="path18"
         style="fill:none;stroke:#ffffff;stroke-width:20;stroke-linecap:round;stroke-linejoin:round;stroke-miterlimit:4;stroke-dasharray:0, 59.063;stroke-dashoffset:0;stroke-opacity:1"
         d="M 808.938,549.023 C 782.773,698.418 658.613,814.094 505.16,827.348" /><path
         id="path20"
         style="fill:none;stroke:#ffffff;stroke-width:20;stroke-linecap:round;stroke-linejoin:round;stroke-miterlimit:4;stroke-dasharray:0, 59.063;stroke-dashoffset:0;stroke-opacity:1"
         d="M 416.895,823.527 C 267.504,797.367 151.824,673.203 138.574,519.754" /><path
         id="path22"
         style="fill:none;stroke:#ffffff;stroke-width:20;stroke-linecap:round;stroke-linejoin:round;stroke-miterlimit:4;stroke-dasharray:0, 59.063;stroke-dashoffset:0;stroke-opacity:1"
         d="M 142.391,431.484 C 168.555,282.094 292.715,166.418 446.168,153.164" /><path
         id="path24"
         style="fill:none;stroke:#ffffff;stroke-width:20;stroke-linecap:round;stroke-linejoin:round;stroke-miterlimit:4;stroke-dasharray:none;stroke-opacity:1"
         d="m 814.023,490.258 v 0 M 475.664,828.613 v 0 M 137.305,490.258 v 0 m 338.359,-338.36 v 0" /><path
         id="path26"
         style="fill:#454f7f;fill-opacity:1;fill-rule:nonzero;stroke:none"
         d="m 404.945,583.457 c 18.203,19.238 41.082,31.199 60.84,31.199 21.844,0 45.762,-13 45.762,-41.078 0,-23.402 -19.238,-35.883 -44.199,-35.883 h -37.961 v -61.879 h 39 c 26,0 43.16,-9.878 43.16,-37.961 0,-26 -17.68,-40.039 -46.801,-40.039 -29.641,0 -49.398,14.563 -68.641,33.801 l -53.039,-55.121 c 20.282,-30.16 71.762,-58.758 121.161,-58.758 70.199,0 144.039,37.438 144.039,114.399 0,46.801 -31.719,73.32 -48.36,85.281 13.52,10.398 38.481,30.68 38.481,66.039 0,66.559 -47.84,110.238 -132.602,110.238 -47.316,0 -92.558,-29.117 -111.277,-49.398 l 50.437,-60.84" /></g></g></svg>