<?xml version="1.0" encoding="UTF-8" standalone="no"?>
<svg
   xmlns:dc="http://purl.org/dc/elements/1.1/"
   xmlns:cc="http://creativecommons.org/ns#"
   xmlns:rdf="http://www.w3.org/1999/02/22-rdf-syntax-ns#"
   xmlns:svg="http://www.w3.org/2000/svg"
   xmlns="http://www.w3.org/2000/svg"
   viewBox="0 0 126.72 126.72"
   height="126.72"
   width="126.72"
   xml:space="preserve"
   id="svg2"
   version="1.1"><metadata
     id="metadata8"><rdf:RDF><cc:Work
         rdf:about=""><dc:format>image/svg+xml</dc:format><dc:type
           rdf:resource="http://purl.org/dc/dcmitype/StillImage" /></cc:Work></rdf:RDF></metadata><defs
     id="defs6" /><g
     transform="matrix(1.3333333,0,0,-1.3333333,0,126.72)"
     id="g10"><g
       transform="scale(0.1)"
       id="g12"><path
         id="path14"
         style="fill:#fdd700;fill-opacity:1;fill-rule:nonzero;stroke:none"
         d="m 480.055,24.7852 c 248.754,0 450.41,201.6558 450.41,450.4138 0,248.754 -201.656,450.414 -450.41,450.414 -248.758,0 -450.4144,-201.66 -450.4144,-450.414 0,-248.758 201.6564,-450.4138 450.4144,-450.4138" /><path
         id="path16"
         style="fill:none;stroke:#ffffff;stroke-width:24;stroke-linecap:round;stroke-linejoin:round;stroke-miterlimit:4;stroke-dasharray:0, 70.8757;stroke-dashoffset:0;stroke-opacity:1"
         d="M 550.574,75.2734 C 729.848,106.672 868.66,255.664 884.563,439.809" /><path
         id="path18"
         style="fill:none;stroke:#ffffff;stroke-width:24;stroke-linecap:round;stroke-linejoin:round;stroke-miterlimit:4;stroke-dasharray:0, 70.8757;stroke-dashoffset:0;stroke-opacity:1"
         d="M 879.98,545.727 C 848.586,724.996 699.59,863.809 515.445,879.711" /><path
         id="path20"
         style="fill:none;stroke:#ffffff;stroke-width:24;stroke-linecap:round;stroke-linejoin:round;stroke-miterlimit:4;stroke-dasharray:0, 70.8757;stroke-dashoffset:0;stroke-opacity:1"
         d="M 409.527,875.129 C 230.258,843.734 91.4453,694.738 75.543,510.594" /><path
         id="path22"
         style="fill:none;stroke:#ffffff;stroke-width:24;stroke-linecap:round;stroke-linejoin:round;stroke-miterlimit:4;stroke-dasharray:0, 70.8757;stroke-dashoffset:0;stroke-opacity:1"
         d="M 80.125,404.676 C 111.52,225.406 260.516,86.5898 444.66,70.6914" /><path
         id="path24"
         style="fill:none;stroke:#ffffff;stroke-width:24;stroke-linecap:round;stroke-linejoin:round;stroke-miterlimit:4;stroke-dasharray:none;stroke-opacity:1"
         d="m 886.082,475.199 v 0 M 480.051,881.23 v 0 M 74.0234,475.199 v 0 M 480.051,69.1719 v 0" /><path
         id="path26"
         style="fill:#454f7f;fill-opacity:1;fill-rule:nonzero;stroke:none"
         d="m 167.914,280.801 h 21 l 1.512,10.246 c 4.031,-6.383 13.609,-12.262 25.703,-12.262 16.297,0 31.25,9.406 31.25,25.199 0,17.641 -14.281,22.512 -27.051,26.879 -10.75,3.696 -20.664,5.711 -20.664,10.418 0,4.199 3.027,6.047 6.555,6.047 8.398,0 17.136,-5.711 17.136,-12.769 h 21.84 v 30.242 h -20.664 l -1.343,-11.09 c -3.532,7.227 -13.61,13.105 -25.036,13.105 -11.925,0 -29.566,-7.222 -29.566,-24.359 0,-15.793 10.922,-22.848 22.344,-26.883 12.097,-4.199 24.695,-5.039 24.695,-10.078 0,-4.703 -4.031,-5.711 -7.391,-5.711 -5.039,0 -17.808,2.352 -17.808,11.254 h -22.512 z m 85.68,84 v -21.84 h 9.07 v -29.906 c 0.508,-21.504 1.348,-35.278 26.547,-35.278 3.863,0 15.285,1.176 20.328,3.192 v 21.504 c -3.191,-1.344 -8.402,-2.856 -10.586,-2.856 -6.551,0 -5.375,7.727 -5.375,13.438 v 29.906 h 15.961 v 21.84 h -15.961 v 25.367 l -30.914,-9.91 v -15.457 z m 71.902,-26.543 c 6.383,3.527 15.121,7.726 25.031,7.726 9.075,0 15.961,-1.847 15.961,-9.41 v -5.879 c -0.84,1.008 -6.718,5.879 -16.633,5.879 -18.984,0 -34.945,-11.926 -34.945,-30.91 0,-19.488 17.137,-28.055 33.098,-28.055 6.047,0 16.465,2.184 22.68,10.75 l 4.031,-7.558 h 35.953 v 21.504 h -10.078 v 32.758 c 0,27.05 -25.371,34.609 -45.531,34.609 -15.454,0 -29.903,-7.895 -36.622,-11.93 z m 40.992,-33.266 c -1.511,-2.519 -5.711,-5.543 -10.754,-5.543 -5.039,0 -8.902,3.192 -8.902,7.895 0,5.207 3.023,8.906 9.742,8.906 7.059,0 9.41,-4.035 9.914,-4.875 z m 98.782,-24.191 v 22.008 h -8.399 v 17.304 c 0,14.782 8.567,18.649 23.688,18.649 V 369 c -17.305,0 -21.672,-6.887 -26.039,-14.953 l -5.043,10.754 h -31.582 v -21.84 h 7.222 v -40.152 h -7.39 v -22.008 z m 20.664,84 v -21.84 h 9.07 v -29.906 c 0.504,-21.504 1.344,-35.278 26.543,-35.278 3.863,0 15.289,1.176 20.328,3.192 v 21.504 c -3.191,-1.344 -8.398,-2.856 -10.582,-2.856 -6.555,0 -5.375,7.727 -5.375,13.438 v 29.906 h 15.957 v 21.84 h -15.957 v 25.367 l -30.914,-9.91 v -15.457 z m 133.218,-56.113 c -9.07,-7.559 -17.804,-8.063 -23.519,-8.063 -14.11,0 -16.293,9.238 -17.305,13.773 h 52.922 c 3.527,9.579 1.68,22.512 -0.336,28.395 -4.871,14.109 -20.16,24.359 -40.152,24.359 -25.367,0 -45.192,-16.297 -45.192,-43.847 0,-32.258 23.52,-45.528 44.352,-45.528 17.473,0 30.914,3.864 43.344,14.614 z m -40.316,22.343 c 0.336,4.199 2.687,13.442 12.934,13.442 10.753,0 12.265,-7.055 12.433,-13.442 z m 119.109,53.93 v -24.863 c -3.191,2.015 -9.242,6.382 -21.168,6.382 -20.664,0 -38.976,-16.632 -38.976,-42.839 0,-23.352 15.289,-44.352 38.976,-44.352 11.59,0 18.985,5.711 21.168,7.727 l 2.856,-6.215 h 39.312 v 21.84 h -8.062 v 104.16 h -41.832 v -21.84 z m -24.023,-61.32 c 0,12.765 4.871,21 11.926,21 6.386,0 12.097,-8.739 12.097,-20.161 0.672,-13.273 -5.375,-21.503 -11.929,-21.503 -7.391,0 -12.094,10.582 -12.094,20.664 z m 74.422,42.672 9.07,-42.336 h 22.176 l 8.906,42.336 v 31.917 h -40.152 z m -0.672,-68.375 c 0,-8.739 8.23,-17.305 19.152,-17.305 12.262,0 19.992,7.894 19.992,17.305 0,9.574 -8.066,17.804 -19.992,17.804 -12.097,0 -19.152,-9.406 -19.152,-17.804" /><path
         id="path28"
         style="fill:#454f7f;fill-opacity:1;fill-rule:nonzero;stroke:none"
         d="m 353.969,411.145 c 6.386,-5.879 19.992,-14.618 38.472,-14.786 35.282,0.168 52.418,18.313 52.418,46.2 v 50.234 h 10.079 v 22.008 h -39.985 l -3.359,-5.207 c -3.36,3.359 -10.414,6.886 -17.809,6.886 -27.719,0 -42.168,-17.136 -42.168,-43.175 0,-21.168 11.426,-42 40.321,-42 10.753,0 17.304,6.215 19.656,9.238 v -5.711 c 0,-7.055 -4.367,-15.793 -19.489,-15.793 -12.765,0 -25.367,7.395 -29.23,10.754 z m 33.433,62.496 c 0,12.765 4.871,21 11.926,21 6.387,0 12.098,-8.739 12.098,-20.161 0.672,-13.273 -5.375,-21.503 -11.93,-21.503 -7.391,0 -12.094,10.582 -12.094,20.664 z m 144.817,-14.953 c -9.074,-7.559 -17.809,-8.063 -23.52,-8.063 -14.113,0 -16.297,9.238 -17.304,13.773 h 52.918 c 3.531,9.579 1.679,22.512 -0.336,28.395 -4.872,14.109 -20.161,24.359 -40.153,24.359 -25.367,0 -45.191,-16.297 -45.191,-43.847 0,-32.258 23.519,-45.528 44.351,-45.528 17.473,0 30.914,3.864 43.344,14.614 z m -40.321,22.343 c 0.336,4.199 2.688,13.442 12.938,13.442 10.75,0 12.262,-7.055 12.43,-13.442 z m 59.805,33.77 v -21.84 h 9.074 v -29.906 c 0.504,-21.504 1.344,-35.278 26.543,-35.278 3.864,0 15.289,1.176 20.328,3.192 v 21.504 c -3.191,-1.344 -8.398,-2.856 -10.582,-2.856 -6.554,0 -5.378,7.727 -5.378,13.438 v 29.906 h 15.96 v 21.84 h -15.96 v 25.367 l -30.911,-9.91 v -15.457 h -9.074" /><path
         id="path30"
         style="fill:#454f7f;fill-opacity:1;fill-rule:nonzero;stroke:none"
         d="m 287.863,698.23 v -22.175 h 9.242 v -72.91 h -9.242 v -22.344 h 94.082 v 43.679 h -28.226 v -21.335 h -21.672 v 72.91 h 8.906 v 22.175 z m 173.039,-89.542 c -9.074,-7.559 -17.808,-8.063 -23.519,-8.063 -14.113,0 -16.297,9.238 -17.305,13.773 h 52.918 c 3.531,9.579 1.684,22.512 -0.336,28.395 -4.871,14.109 -20.156,24.359 -40.148,24.359 -25.371,0 -45.196,-16.297 -45.196,-43.847 0,-32.258 23.524,-45.528 44.356,-45.528 17.469,0 30.91,3.864 43.344,14.614 z m -40.32,22.343 c 0.336,4.199 2.688,13.442 12.938,13.442 10.75,0 12.261,-7.055 12.429,-13.442 z m 59.809,33.77 v -21.84 h 9.07 v -29.906 c 0.504,-21.504 1.344,-35.278 26.543,-35.278 3.863,0 15.289,1.176 20.328,3.192 v 21.504 c -3.191,-1.344 -8.398,-2.856 -10.582,-2.856 -6.555,0 -5.379,7.727 -5.379,13.438 v 29.906 h 15.961 v 21.84 h -15.961 v 25.367 l -30.91,-9.91 v -15.457 z m 80.636,-22.512 c 17.137,15.285 27.887,35.781 27.215,57.453 l -30.574,8.067 c 1.68,-25.368 -4.031,-39.649 -15.961,-54.602 z m 32.59,-61.488 h 21 l 1.512,10.246 c 4.031,-6.383 13.609,-12.262 25.707,-12.262 16.293,0 31.246,9.406 31.246,25.199 0,17.641 -14.281,22.512 -27.047,26.879 -10.754,3.696 -20.664,5.711 -20.664,10.418 0,4.199 3.024,6.047 6.551,6.047 8.398,0 17.137,-5.711 17.137,-12.769 h 21.839 v 30.242 h -20.664 l -1.343,-11.09 c -3.528,7.227 -13.61,13.105 -25.032,13.105 -11.929,0 -29.57,-7.222 -29.57,-24.359 0,-15.793 10.922,-22.848 22.344,-26.883 12.097,-4.199 24.695,-5.039 24.695,-10.078 0,-4.703 -4.031,-5.711 -7.39,-5.711 -5.04,0 -17.809,2.352 -17.809,11.254 h -22.512 v -30.238" /></g></g></svg>