<?xml version="1.0" encoding="UTF-8" standalone="no"?>
<svg
   xmlns:dc="http://purl.org/dc/elements/1.1/"
   xmlns:cc="http://creativecommons.org/ns#"
   xmlns:rdf="http://www.w3.org/1999/02/22-rdf-syntax-ns#"
   xmlns:svg="http://www.w3.org/2000/svg"
   xmlns="http://www.w3.org/2000/svg"
   viewBox="0 0 126.72 126.72"
   height="126.72"
   width="126.72"
   xml:space="preserve"
   id="svg2"
   version="1.1"><metadata
     id="metadata8"><rdf:RDF><cc:Work
         rdf:about=""><dc:format>image/svg+xml</dc:format><dc:type
           rdf:resource="http://purl.org/dc/dcmitype/StillImage" /></cc:Work></rdf:RDF></metadata><defs
     id="defs6" /><g
     transform="matrix(1.3333333,0,0,-1.3333333,0,126.72)"
     id="g10"><g
       transform="scale(0.1)"
       id="g12"><path
         id="path14"
         style="fill:#fdd700;fill-opacity:1;fill-rule:nonzero;stroke:none"
         d="m 475.664,127.203 c 207.297,0 375.344,168.047 375.344,375.344 0,207.301 -168.047,375.348 -375.344,375.348 -207.297,0 -375.344,-168.047 -375.344,-375.348 0,-207.297 168.047,-375.344 375.344,-375.344" /><path
         id="path16"
         style="fill:none;stroke:#ffffff;stroke-width:20;stroke-linecap:round;stroke-linejoin:round;stroke-miterlimit:4;stroke-dasharray:0, 59.063;stroke-dashoffset:0;stroke-opacity:1"
         d="m 534.434,169.277 c 149.394,26.161 265.07,150.325 278.324,303.778" /><path
         id="path18"
         style="fill:none;stroke:#ffffff;stroke-width:20;stroke-linecap:round;stroke-linejoin:round;stroke-miterlimit:4;stroke-dasharray:0, 59.063;stroke-dashoffset:0;stroke-opacity:1"
         d="M 808.938,561.316 C 782.773,710.711 658.613,826.387 505.16,839.641" /><path
         id="path20"
         style="fill:none;stroke:#ffffff;stroke-width:20;stroke-linecap:round;stroke-linejoin:round;stroke-miterlimit:4;stroke-dasharray:0, 59.063;stroke-dashoffset:0;stroke-opacity:1"
         d="M 416.895,835.82 C 267.504,809.66 151.824,685.5 138.574,532.043" /><path
         id="path22"
         style="fill:none;stroke:#ffffff;stroke-width:20;stroke-linecap:round;stroke-linejoin:round;stroke-miterlimit:4;stroke-dasharray:0, 59.063;stroke-dashoffset:0;stroke-opacity:1"
         d="M 142.391,443.777 C 168.555,294.387 292.715,178.711 446.168,165.457" /><path
         id="path24"
         style="fill:none;stroke:#ffffff;stroke-width:20;stroke-linecap:round;stroke-linejoin:round;stroke-miterlimit:4;stroke-dasharray:none;stroke-opacity:1"
         d="m 814.023,502.547 v 0 M 475.664,840.906 v 0 M 137.305,502.547 v 0 M 475.664,164.188 v 0" /><path
         id="path26"
         style="fill:#454f7f;fill-opacity:1;fill-rule:nonzero;stroke:none"
         d="M 449.406,622.789 H 589.285 V 700.27 H 383.367 L 351.645,521.391 418.207,491.75 c 10.918,11.441 24.961,23.922 48.879,23.922 29.641,0 53.039,-22.883 53.039,-50.442 0,-30.16 -22.359,-52 -57.199,-52 -30.16,0 -52.52,17.68 -72.801,38.481 l -56.68,-58.762 c 21.321,-32.238 76.442,-62.918 128.961,-62.918 75.399,0 155.481,44.199 155.481,131.559 0,80.601 -60.321,123.238 -121.16,123.238 -25.481,0 -45.762,-5.719 -56.161,-12.476 l 8.84,50.437" /></g></g></svg>