<?xml version="1.0" encoding="UTF-8" standalone="no"?>
<svg
   xmlns:dc="http://purl.org/dc/elements/1.1/"
   xmlns:cc="http://creativecommons.org/ns#"
   xmlns:rdf="http://www.w3.org/1999/02/22-rdf-syntax-ns#"
   xmlns:svg="http://www.w3.org/2000/svg"
   xmlns="http://www.w3.org/2000/svg"
   viewBox="0 0 126.72 126.72"
   height="126.72"
   width="126.72"
   xml:space="preserve"
   id="svg2"
   version="1.1"><metadata
     id="metadata8"><rdf:RDF><cc:Work
         rdf:about=""><dc:format>image/svg+xml</dc:format><dc:type
           rdf:resource="http://purl.org/dc/dcmitype/StillImage" /></cc:Work></rdf:RDF></metadata><defs
     id="defs6" /><g
     transform="matrix(1.3333333,0,0,-1.3333333,0,126.72)"
     id="g10"><g
       transform="scale(0.1)"
       id="g12"><path
         id="path14"
         style="fill:#fdd700;fill-opacity:1;fill-rule:nonzero;stroke:none"
         d="m 475.664,93 c 207.297,0 375.344,168.047 375.344,375.344 0,207.297 -168.047,375.344 -375.344,375.344 C 268.367,843.688 100.32,675.641 100.32,468.344 100.32,261.047 268.367,93 475.664,93" /><path
         id="path16"
         style="fill:none;stroke:#ffffff;stroke-width:20;stroke-linecap:round;stroke-linejoin:round;stroke-miterlimit:4;stroke-dasharray:0, 59.063;stroke-dashoffset:0;stroke-opacity:1"
         d="m 534.434,135.07 c 149.394,26.164 265.07,150.325 278.324,303.778" /><path
         id="path18"
         style="fill:none;stroke:#ffffff;stroke-width:20;stroke-linecap:round;stroke-linejoin:round;stroke-miterlimit:4;stroke-dasharray:0, 59.063;stroke-dashoffset:0;stroke-opacity:1"
         d="M 808.938,527.113 C 782.773,676.508 658.613,792.184 505.16,805.434" /><path
         id="path20"
         style="fill:none;stroke:#ffffff;stroke-width:20;stroke-linecap:round;stroke-linejoin:round;stroke-miterlimit:4;stroke-dasharray:0, 59.063;stroke-dashoffset:0;stroke-opacity:1"
         d="M 416.895,801.617 C 267.504,775.453 151.824,651.293 138.574,497.84" /><path
         id="path22"
         style="fill:none;stroke:#ffffff;stroke-width:20;stroke-linecap:round;stroke-linejoin:round;stroke-miterlimit:4;stroke-dasharray:0, 59.063;stroke-dashoffset:0;stroke-opacity:1"
         d="M 142.391,409.574 C 168.555,260.18 292.715,144.504 446.168,131.254" /><path
         id="path24"
         style="fill:none;stroke:#ffffff;stroke-width:20;stroke-linecap:round;stroke-linejoin:round;stroke-miterlimit:4;stroke-dasharray:none;stroke-opacity:1"
         d="m 814.023,468.344 v 0 M 475.664,806.703 v 0 M 137.305,468.344 v 0 m 338.359,-338.36 v 0" /><path
         id="path26"
         style="fill:#454f7f;fill-opacity:1;fill-rule:nonzero;stroke:none"
         d="m 244.426,540.227 52,24.441 V 371.746 h -52 v -69.16 h 208 v 69.16 h -48.36 v 294.32 h -92.558 c -37.961,-45.242 -61.363,-53.558 -91,-68.121 z m 481.203,90.48 c -30.684,26 -87.883,42.117 -122.723,41.078 -136.758,-4.16 -154.437,-141.961 -152.879,-211.117 3.121,-104 66.039,-165.363 151.321,-162.762 84.757,2.602 134.679,61.879 134.679,131.559 0,70.723 -55.121,118.562 -121.679,115.961 -27.563,-1.039 -54.602,-13 -68.121,-26.52 5.199,38.481 29.64,69.68 68.121,70.719 31.718,0 58.238,-16.117 75.918,-26.52 z M 600.828,470.547 c 31.199,0.519 41.598,-26 42.117,-46.281 0.524,-24.961 -20.797,-44.719 -47.316,-44.719 -33.281,0 -48.363,35.359 -48.363,61.359 8.32,10.399 29.121,28.602 53.562,29.641" /></g></g></svg>