<?xml version="1.0" encoding="UTF-8" standalone="no"?>
<svg
   xmlns:dc="http://purl.org/dc/elements/1.1/"
   xmlns:cc="http://creativecommons.org/ns#"
   xmlns:rdf="http://www.w3.org/1999/02/22-rdf-syntax-ns#"
   xmlns:svg="http://www.w3.org/2000/svg"
   xmlns="http://www.w3.org/2000/svg"
   viewBox="0 0 126.72 126.72"
   height="126.72"
   width="126.72"
   xml:space="preserve"
   id="svg2"
   version="1.1"><metadata
     id="metadata8"><rdf:RDF><cc:Work
         rdf:about=""><dc:format>image/svg+xml</dc:format><dc:type
           rdf:resource="http://purl.org/dc/dcmitype/StillImage" /></cc:Work></rdf:RDF></metadata><defs
     id="defs6" /><g
     transform="matrix(1.3333333,0,0,-1.3333333,0,126.72)"
     id="g10"><g
       transform="scale(0.1)"
       id="g12"><path
         id="path14"
         style="fill:#fdd700;fill-opacity:1;fill-rule:nonzero;stroke:none"
         d="m 476.598,100.488 c 207.293,0 375.343,168.047 375.343,375.344 0,207.297 -168.05,375.344 -375.343,375.344 -207.297,0 -375.344,-168.047 -375.344,-375.344 0,-207.297 168.047,-375.344 375.344,-375.344" /><path
         id="path16"
         style="fill:none;stroke:#ffffff;stroke-width:20;stroke-linecap:round;stroke-linejoin:round;stroke-miterlimit:4;stroke-dasharray:0, 59.063;stroke-dashoffset:0;stroke-opacity:1"
         d="m 535.367,142.559 c 149.391,26.164 265.067,150.324 278.321,303.777" /><path
         id="path18"
         style="fill:none;stroke:#ffffff;stroke-width:20;stroke-linecap:round;stroke-linejoin:round;stroke-miterlimit:4;stroke-dasharray:0, 59.063;stroke-dashoffset:0;stroke-opacity:1"
         d="m 809.867,534.602 c -26.16,149.394 -150.32,265.07 -303.773,278.32" /><path
         id="path20"
         style="fill:none;stroke:#ffffff;stroke-width:20;stroke-linecap:round;stroke-linejoin:round;stroke-miterlimit:4;stroke-dasharray:0, 59.063;stroke-dashoffset:0;stroke-opacity:1"
         d="M 417.824,809.105 C 268.434,782.941 152.758,658.781 139.504,505.328" /><path
         id="path22"
         style="fill:none;stroke:#ffffff;stroke-width:20;stroke-linecap:round;stroke-linejoin:round;stroke-miterlimit:4;stroke-dasharray:0, 59.063;stroke-dashoffset:0;stroke-opacity:1"
         d="M 143.324,417.063 C 169.484,267.668 293.648,151.992 447.102,138.742" /><path
         id="path24"
         style="fill:none;stroke:#ffffff;stroke-width:20;stroke-linecap:round;stroke-linejoin:round;stroke-miterlimit:4;stroke-dasharray:none;stroke-opacity:1"
         d="m 814.953,475.832 v 0 M 476.598,814.191 v 0 M 138.238,475.832 v 0 m 338.36,-338.359 v 0" /><path
         id="path26"
         style="fill:#454f7f;fill-opacity:1;fill-rule:nonzero;stroke:none"
         d="m 384.559,547.715 52,24.437 V 379.234 h -52 v -69.16 h 208 v 69.16 h -48.36 v 294.321 h -92.558 c -37.961,-45.242 -61.364,-53.563 -91,-68.121 l 23.918,-57.719" /></g></g></svg>