<?xml version="1.0" encoding="UTF-8" standalone="no"?>
<svg
   xmlns:dc="http://purl.org/dc/elements/1.1/"
   xmlns:cc="http://creativecommons.org/ns#"
   xmlns:rdf="http://www.w3.org/1999/02/22-rdf-syntax-ns#"
   xmlns:svg="http://www.w3.org/2000/svg"
   xmlns="http://www.w3.org/2000/svg"
   viewBox="0 0 126.72 126.72"
   height="126.72"
   width="126.72"
   xml:space="preserve"
   id="svg2"
   version="1.1"><metadata
     id="metadata8"><rdf:RDF><cc:Work
         rdf:about=""><dc:format>image/svg+xml</dc:format><dc:type
           rdf:resource="http://purl.org/dc/dcmitype/StillImage" /></cc:Work></rdf:RDF></metadata><defs
     id="defs6" /><g
     transform="matrix(1.3333333,0,0,-1.3333333,0,126.72)"
     id="g10"><g
       transform="scale(0.1)"
       id="g12"><path
         id="path14"
         style="fill:#fdd700;fill-opacity:1;fill-rule:nonzero;stroke:none"
         d="m 475.664,103.883 c 207.297,0 375.344,168.047 375.344,375.344 0,207.296 -168.047,375.347 -375.344,375.347 -207.297,0 -375.344,-168.051 -375.344,-375.347 0,-207.297 168.047,-375.344 375.344,-375.344" /><path
         id="path16"
         style="fill:none;stroke:#ffffff;stroke-width:20;stroke-linecap:round;stroke-linejoin:round;stroke-miterlimit:4;stroke-dasharray:0, 59.063;stroke-dashoffset:0;stroke-opacity:1"
         d="m 534.434,145.953 c 149.394,26.164 265.07,150.328 278.324,303.777" /><path
         id="path18"
         style="fill:none;stroke:#ffffff;stroke-width:20;stroke-linecap:round;stroke-linejoin:round;stroke-miterlimit:4;stroke-dasharray:0, 59.063;stroke-dashoffset:0;stroke-opacity:1"
         d="M 808.938,538 C 782.773,687.391 658.613,803.066 505.16,816.32" /><path
         id="path20"
         style="fill:none;stroke:#ffffff;stroke-width:20;stroke-linecap:round;stroke-linejoin:round;stroke-miterlimit:4;stroke-dasharray:0, 59.063;stroke-dashoffset:0;stroke-opacity:1"
         d="M 416.895,812.5 C 267.504,786.34 151.824,662.176 138.574,508.723" /><path
         id="path22"
         style="fill:none;stroke:#ffffff;stroke-width:20;stroke-linecap:round;stroke-linejoin:round;stroke-miterlimit:4;stroke-dasharray:0, 59.063;stroke-dashoffset:0;stroke-opacity:1"
         d="M 142.391,420.461 C 168.555,271.066 292.715,155.391 446.168,142.137" /><path
         id="path24"
         style="fill:none;stroke:#ffffff;stroke-width:20;stroke-linecap:round;stroke-linejoin:round;stroke-miterlimit:4;stroke-dasharray:none;stroke-opacity:1"
         d="m 814.023,479.227 v 0 M 475.664,817.586 v 0 M 137.305,479.227 v 0 m 338.359,-338.36 v 0" /><path
         id="path26"
         style="fill:#454f7f;fill-opacity:1;fill-rule:nonzero;stroke:none"
         d="m 608.527,641.59 c -30.679,26 -87.879,42.121 -122.718,41.078 -136.762,-4.16 -154.442,-141.957 -152.883,-211.117 3.121,-104 66.043,-165.363 151.32,-162.762 84.762,2.602 134.68,61.879 134.68,131.559 0,70.722 -55.117,118.562 -121.68,115.961 -27.558,-1.039 -54.598,-13 -68.117,-26.52 5.199,38.481 29.637,69.68 68.117,70.719 31.723,0 58.242,-16.117 75.922,-26.52 z m -124.8,-160.16 c 31.199,0.519 41.601,-26 42.121,-46.282 0.519,-24.96 -20.801,-44.718 -47.321,-44.718 -33.281,0 -48.359,35.359 -48.359,61.359 8.32,10.399 29.117,28.602 53.559,29.641" /></g></g></svg>