<?xml version="1.0" encoding="UTF-8" standalone="no"?>
<svg
   xmlns:dc="http://purl.org/dc/elements/1.1/"
   xmlns:cc="http://creativecommons.org/ns#"
   xmlns:rdf="http://www.w3.org/1999/02/22-rdf-syntax-ns#"
   xmlns:svg="http://www.w3.org/2000/svg"
   xmlns="http://www.w3.org/2000/svg"
   viewBox="0 0 126.72 126.72"
   height="126.72"
   width="126.72"
   xml:space="preserve"
   id="svg2"
   version="1.1"><metadata
     id="metadata8"><rdf:RDF><cc:Work
         rdf:about=""><dc:format>image/svg+xml</dc:format><dc:type
           rdf:resource="http://purl.org/dc/dcmitype/StillImage" /></cc:Work></rdf:RDF></metadata><defs
     id="defs6" /><g
     transform="matrix(1.3333333,0,0,-1.3333333,0,126.72)"
     id="g10"><g
       transform="scale(0.1)"
       id="g12"><path
         id="path14"
         style="fill:#fdd700;fill-opacity:1;fill-rule:nonzero;stroke:none"
         d="m 475.664,91.4023 c 207.297,0 375.344,168.0467 375.344,375.3437 0,207.297 -168.047,375.344 -375.344,375.344 -207.297,0 -375.344,-168.047 -375.344,-375.344 0,-207.297 168.047,-375.3437 375.344,-375.3437" /><path
         id="path16"
         style="fill:none;stroke:#ffffff;stroke-width:20;stroke-linecap:round;stroke-linejoin:round;stroke-miterlimit:4;stroke-dasharray:0, 59.063;stroke-dashoffset:0;stroke-opacity:1"
         d="m 534.434,133.473 c 149.394,26.164 265.07,150.324 278.324,303.777" /><path
         id="path18"
         style="fill:none;stroke:#ffffff;stroke-width:20;stroke-linecap:round;stroke-linejoin:round;stroke-miterlimit:4;stroke-dasharray:0, 59.063;stroke-dashoffset:0;stroke-opacity:1"
         d="M 808.938,525.516 C 782.773,674.906 658.613,790.586 505.16,803.836" /><path
         id="path20"
         style="fill:none;stroke:#ffffff;stroke-width:20;stroke-linecap:round;stroke-linejoin:round;stroke-miterlimit:4;stroke-dasharray:0, 59.063;stroke-dashoffset:0;stroke-opacity:1"
         d="M 416.895,800.02 C 267.504,773.855 151.824,649.695 138.574,496.242" /><path
         id="path22"
         style="fill:none;stroke:#ffffff;stroke-width:20;stroke-linecap:round;stroke-linejoin:round;stroke-miterlimit:4;stroke-dasharray:0, 59.063;stroke-dashoffset:0;stroke-opacity:1"
         d="M 142.391,407.977 C 168.555,258.582 292.715,142.906 446.168,129.652" /><path
         id="path24"
         style="fill:none;stroke:#ffffff;stroke-width:20;stroke-linecap:round;stroke-linejoin:round;stroke-miterlimit:4;stroke-dasharray:none;stroke-opacity:1"
         d="m 814.023,466.746 v 0 M 475.664,805.105 v 0 M 137.305,466.746 v 0 M 475.664,128.387 v 0" /><path
         id="path26"
         style="fill:#454f7f;fill-opacity:1;fill-rule:nonzero;stroke:none"
         d="m 238.629,538.625 52,24.441 V 370.145 h -52 v -69.161 h 208 v 69.161 h -48.363 v 294.32 h -92.559 c -37.961,-45.238 -61.359,-53.559 -91,-68.117 z m 277.516,7.801 c 15.601,16.64 35.878,39.519 63.96,39.519 23.918,0 43.68,-7.8 43.68,-34.32 0,-32.238 -55.121,-54.078 -92.039,-86.84 -33.281,-26.519 -47.32,-41.597 -75.922,-88.398 v -75.403 h 280.801 v 110.762 h -87.359 v -41.601 h -91.52 c 11.957,20.8 53.039,53.562 78,69.679 55.117,35.883 83.199,56.684 83.199,116.481 0,70.203 -54.601,113.883 -123.761,113.883 -52,0 -98.797,-22.364 -135.2,-64.481 l 56.161,-59.281" /></g></g></svg>