<?xml version="1.0" encoding="UTF-8" standalone="no"?>
<svg
   xmlns:dc="http://purl.org/dc/elements/1.1/"
   xmlns:cc="http://creativecommons.org/ns#"
   xmlns:rdf="http://www.w3.org/1999/02/22-rdf-syntax-ns#"
   xmlns:svg="http://www.w3.org/2000/svg"
   xmlns="http://www.w3.org/2000/svg"
   viewBox="0 0 126.72 126.72"
   height="126.72"
   width="126.72"
   xml:space="preserve"
   id="svg2"
   version="1.1"><metadata
     id="metadata8"><rdf:RDF><cc:Work
         rdf:about=""><dc:format>image/svg+xml</dc:format><dc:type
           rdf:resource="http://purl.org/dc/dcmitype/StillImage" /></cc:Work></rdf:RDF></metadata><defs
     id="defs6" /><g
     transform="matrix(1.3333333,0,0,-1.3333333,0,126.72)"
     id="g10"><g
       transform="scale(0.1)"
       id="g12"><path
         id="path14"
         style="fill:#fdd700;fill-opacity:1;fill-rule:nonzero;stroke:none"
         d="m 474.734,89.5781 c 207.297,0 375.344,168.0469 375.344,375.3439 0,207.297 -168.047,375.344 -375.344,375.344 -207.296,0 -375.3434,-168.047 -375.3434,-375.344 0,-207.297 168.0474,-375.3439 375.3434,-375.3439" /><path
         id="path16"
         style="fill:none;stroke:#ffffff;stroke-width:20;stroke-linecap:round;stroke-linejoin:round;stroke-miterlimit:4;stroke-dasharray:0, 59.063;stroke-dashoffset:0;stroke-opacity:1"
         d="m 533.504,131.648 c 149.394,26.165 265.07,150.325 278.32,303.778" /><path
         id="path18"
         style="fill:none;stroke:#ffffff;stroke-width:20;stroke-linecap:round;stroke-linejoin:round;stroke-miterlimit:4;stroke-dasharray:0, 59.063;stroke-dashoffset:0;stroke-opacity:1"
         d="M 808.008,523.691 C 781.844,673.086 657.684,788.762 504.23,802.012" /><path
         id="path20"
         style="fill:none;stroke:#ffffff;stroke-width:20;stroke-linecap:round;stroke-linejoin:round;stroke-miterlimit:4;stroke-dasharray:0, 59.063;stroke-dashoffset:0;stroke-opacity:1"
         d="M 415.965,798.195 C 266.57,772.031 150.895,647.871 137.645,494.418" /><path
         id="path22"
         style="fill:none;stroke:#ffffff;stroke-width:20;stroke-linecap:round;stroke-linejoin:round;stroke-miterlimit:4;stroke-dasharray:0, 59.063;stroke-dashoffset:0;stroke-opacity:1"
         d="M 141.461,406.152 C 167.625,256.758 291.785,141.082 445.238,127.828" /><path
         id="path24"
         style="fill:none;stroke:#ffffff;stroke-width:20;stroke-linecap:round;stroke-linejoin:round;stroke-miterlimit:4;stroke-dasharray:none;stroke-opacity:1"
         d="m 813.094,464.922 v 0 m -338.36,338.359 v 0 M 136.375,464.922 v 0 M 474.734,126.563 v 0" /><path
         id="path26"
         style="fill:#454f7f;fill-opacity:1;fill-rule:nonzero;stroke:none"
         d="m 239.699,536.805 52,24.437 V 368.324 h -52 v -69.16 h 208 v 69.16 H 399.34 v 294.321 h -92.563 c -37.957,-45.243 -61.359,-53.563 -91,-68.122 z m 330.715,48.359 h 139.879 v 77.481 H 504.371 l -31.719,-178.883 66.563,-29.641 c 10.918,11.442 24.957,23.922 48.879,23.922 29.64,0 53.039,-22.879 53.039,-50.441 0,-30.161 -22.36,-52 -57.199,-52 -30.161,0 -52.52,17.679 -72.801,38.48 l -56.68,-58.758 c 21.32,-32.242 76.442,-62.922 128.961,-62.922 75.399,0 155.481,44.2 155.481,131.563 0,80.598 -60.321,123.238 -121.161,123.238 -25.48,0 -45.761,-5.719 -56.16,-12.48 l 8.84,50.441" /></g></g></svg>