<?xml version="1.0" encoding="utf-8"?>
<!-- Generator: Adobe Illustrator 28.3.0, SVG Export Plug-In . SVG Version: 6.00 Build 0)  -->
<svg version="1.1" id="Layer_1" xmlns="http://www.w3.org/2000/svg" xmlns:xlink="http://www.w3.org/1999/xlink" x="0px" y="0px"
	 viewBox="0 0 62.3 62.4" style="enable-background:new 0 0 62.3 62.4;" xml:space="preserve">
<style type="text/css">
	.st0{fill:#293F6F;}
	.st1{fill:#FFFFFF;}
	.st2{fill:none;stroke:#000000;stroke-width:1.25;stroke-linecap:round;stroke-linejoin:round;stroke-miterlimit:10;}
</style>
<circle class="st0" cx="31.2" cy="31.2" r="23.4"/>
<g>
	<path class="st1" d="M34.8,23.2c1.3,0,2.4-1.1,2.4-2.4c0-1.3-1.1-2.4-2.4-2.4c-1.3,0-2.4,1.1-2.4,2.4
		C32.4,22.1,33.5,23.2,34.8,23.2z"/>
	<path class="st1" d="M39.5,30.6l-4.1-1.3l-0.3-3.5l0-0.2l0-0.2l0,0c-0.2-1-1.1-1.7-2.1-1.7c-0.3,0-0.5,0.1-0.7,0.1l0,0L32,24
		l-4.1,1.5c-0.3,0.1-0.6,0.4-0.7,0.7l-2,4.4l0,0.1l-0.1,0.2l0,0c0,0.1,0,0.1,0,0.2c0,0.6,0.5,1.1,1.1,1.1c0.4,0,0.7-0.2,0.9-0.5
		l0.1-0.3l1.7-3.6c0.1-0.2,0.2-0.3,0.4-0.4l1.3-0.5l-0.4,1.5h0l-0.7,2.6L29.2,32l-2.4,5.4l-4.1,3.9l0,0l-0.3,0.3l0,0
		c-0.2,0.2-0.3,0.5-0.3,0.8c0,0.7,0.6,1.4,1.3,1.4c0.3,0,0.6-0.1,0.8-0.3l0.1-0.1l4.4-4c0.1-0.1,0.3-0.3,0.3-0.5l2-4.4l3.3,2.6
		l-0.5,5.1l0,0.3c0,0.7,0.6,1.4,1.3,1.4c0.6,0,1.1-0.4,1.3-1l0.1,0l0.6-6.1c0.1-0.6-0.2-1.1-0.6-1.5l-3.4-2.7l0.4-1.7l5.1,1.7l0,0
		l0.1,0c0.1,0,0.2,0,0.3,0c0.6,0,1.1-0.5,1.1-1.1C40.2,31.2,39.9,30.8,39.5,30.6z"/>
</g>
</svg>
