<?xml version="1.0" encoding="utf-8"?>
<!-- Generator: Adobe Illustrator 28.3.0, SVG Export Plug-In . SVG Version: 6.00 Build 0)  -->
<svg version="1.1" id="Layer_1" xmlns="http://www.w3.org/2000/svg" xmlns:xlink="http://www.w3.org/1999/xlink" x="0px" y="0px"
	 viewBox="0 0 62.3 62.4" style="enable-background:new 0 0 62.3 62.4;" xml:space="preserve">
<style type="text/css">
	.st0{fill:#293F6F;}
	.st1{fill:#FFFFFF;}
	.st2{fill:none;stroke:#000000;stroke-width:1.25;stroke-linecap:round;stroke-linejoin:round;stroke-miterlimit:10;}
</style>
<circle class="st0" cx="31.1" cy="31.6" r="23.4"/>
<g>
	<path class="st1" d="M41,32.6H21.3c-0.6,0-1-0.4-1-1s0.4-1,1-1H41c0.6,0,1,0.4,1,1S41.6,32.6,41,32.6z"/>
	<path class="st1" d="M41,27.4H21.3c-0.6,0-1-0.4-1-1s0.4-1,1-1H41c0.6,0,1,0.4,1,1S41.6,27.4,41,27.4z"/>
	<path class="st1" d="M41,37.8H21.3c-0.6,0-1-0.4-1-1s0.4-1,1-1H41c0.6,0,1,0.4,1,1S41.6,37.8,41,37.8z"/>
</g>
</svg>
