<svg xmlns="http://www.w3.org/2000/svg" xmlns:xlink="http://www.w3.org/1999/xlink" width="18.144" height="20" viewBox="0 0 18.144 20">
  <defs>
    <clipPath id="clip-path">
      <rect id="Rectangle_197" data-name="Rectangle 197" width="18.144" height="20" fill="none"/>
    </clipPath>
  </defs>
  <g id="magnifying-glass-micro-icon" transform="translate(0 0)">
    <g id="Group_207" data-name="Group 207" transform="translate(0 0)" clip-path="url(#clip-path)">
      <path id="Path_2304" data-name="Path 2304" d="M17.792,17.7l-5.445-6.069A7.031,7.031,0,1,0,.02,6.508a7.034,7.034,0,0,0,6.489,7.539q.269.021.537.02a6.963,6.963,0,0,0,3.121-.738l5.573,6.212A1.378,1.378,0,0,0,17.792,17.7M6.685,11.692A4.672,4.672,0,0,1,2.377,6.685,4.688,4.688,0,0,1,7.028,2.363c.118,0,.236,0,.355.013a4.671,4.671,0,1,1-.7,9.316" transform="translate(0 0)"/>
    </g>
  </g>
</svg>
