<svg id="Layer_1" data-name="Layer 1" xmlns="http://www.w3.org/2000/svg" viewBox="0 0 70.5 69.89"><defs><style>.cls-1{fill:#4483ad;}</style></defs><title>lions-day-site-icon-external-site-FINAL-091120</title><path class="cls-1" d="M59.42,28.26a3.36,3.36,0,0,0-3.36,3.36V59.75A3.23,3.23,0,0,1,52.83,63H10.41a3.24,3.24,0,0,1-3.24-3.23V17.32a3.24,3.24,0,0,1,3.24-3.23H38.47a3.36,3.36,0,0,0,0-6.72H10.41a10,10,0,0,0-10,10V59.75a10,10,0,0,0,10,10H52.83a10,10,0,0,0,10-10V31.62A3.35,3.35,0,0,0,59.42,28.26Z"/><path class="cls-1" d="M66.64.21H47.8a3.36,3.36,0,1,0,0,6.72H58.51L28.28,37.16a3.36,3.36,0,0,0,0,4.75,3.31,3.31,0,0,0,2.37,1,3.34,3.34,0,0,0,2.38-1L63.28,11.66V22.42a3.36,3.36,0,1,0,6.72,0V3.57A3.36,3.36,0,0,0,66.64.21Z"/></svg>