<?xml version="1.0" encoding="utf-8"?>
<!-- Generator: Adobe Illustrator 25.0.0, SVG Export Plug-In . SVG Version: 6.00 Build 0)  -->
<svg version="1.1" id="Layer_1" xmlns="http://www.w3.org/2000/svg" xmlns:xlink="http://www.w3.org/1999/xlink" x="0px" y="0px"
	 viewBox="0 0 33.53 46.93" style="enable-background:new 0 0 33.53 46.93;" xml:space="preserve">
<style type="text/css">
	.st0{fill:#48507C;}
</style>
<path class="st0" d="M33.53,16.76C33.53,7.52,26.01,0,16.76,0S0,7.52,0,16.76c0,3.12,0.87,6.03,2.36,8.53l-0.02,0
	c0,0,12.85,21.64,14.42,21.64c1.57,0,13.98-20.94,13.98-20.94l-0.01,0C32.5,23.34,33.53,20.17,33.53,16.76z M16.76,23.69
	c-3.82,0-6.92-3.1-6.92-6.92s3.1-6.92,6.92-6.92s6.92,3.1,6.92,6.92S20.59,23.69,16.76,23.69z"/>
</svg>
